<?xml version="1.0" encoding="UTF-8" standalone="no"?>
<!-- Created with Inkscape (http://www.inkscape.org/) -->

<svg
   xmlns:dc="http://purl.org/dc/elements/1.1/"
   xmlns:cc="http://creativecommons.org/ns#"
   xmlns:rdf="http://www.w3.org/1999/02/22-rdf-syntax-ns#"
   xmlns:svg="http://www.w3.org/2000/svg"
   xmlns="http://www.w3.org/2000/svg"
   xmlns:sodipodi="http://sodipodi.sourceforge.net/DTD/sodipodi-0.dtd"
   xmlns:inkscape="http://www.inkscape.org/namespaces/inkscape"
   version="1.1"
   id="svg2"
   xml:space="preserve"
   width="357.92227"
   height="129.04532"
   viewBox="0 0 357.92227 129.04532"
   sodipodi:docname="COG Corso Logos 8-15-16.pdf"
   inkscape:version="0.92.4 (5da689c313, 2019-01-14)"><metadata
     id="metadata8"><rdf:RDF><cc:Work
         rdf:about=""><dc:format>image/svg+xml</dc:format><dc:type
           rdf:resource="http://purl.org/dc/dcmitype/StillImage" /><dc:title></dc:title></cc:Work></rdf:RDF></metadata><defs
     id="defs6"><clipPath
       clipPathUnits="userSpaceOnUse"
       id="clipPath18"><path
         d="M 0,792 H 612 V 0 H 0 Z"
         id="path16"
         inkscape:connector-curvature="0" /></clipPath></defs><sodipodi:namedview
     pagecolor="#ffffff"
     bordercolor="#666666"
     borderopacity="1"
     objecttolerance="10"
     gridtolerance="10"
     guidetolerance="10"
     inkscape:pageopacity="0"
     inkscape:pageshadow="2"
     inkscape:window-width="1918"
     inkscape:window-height="2083"
     id="namedview4"
     showgrid="false"
     fit-margin-top="0"
     fit-margin-left="0"
     fit-margin-right="0"
     fit-margin-bottom="0"
     inkscape:zoom="1.7878788"
     inkscape:cx="248.85647"
     inkscape:cy="129.51201"
     inkscape:window-x="4312"
     inkscape:window-y="0"
     inkscape:window-maximized="0"
     inkscape:current-layer="g10" /><g
     id="g10"
     inkscape:groupmode="layer"
     inkscape:label="COG Corso Logos 8-15-16"
     transform="matrix(1.3333333,0,0,-1.3333333,493.73381,133.47376)"><path
       inkscape:connector-curvature="0"
       id="path182"
       style="fill-opacity:1;fill-rule:nonzero;stroke:none"
       d="m -288.17237,31.308024 c -6.542,-15.343 -22.563,-24.9320003 -38.583,-24.9320003 -24.14,0 -43.545,20.1940003 -43.545,43.7720003 0,23.014 19.065,43.095 43.207,43.095 13.877,0 31.364,-7.219 39.374,-25.496 h -17.6 c -5.979,6.882 -13.086,11.056 -22.337,11.056 -13.537,0 -27.189,-12.183 -27.189,-28.881 0,-15.681 12.974,-29.106 27.752,-29.106 11.169,0 17.261,6.543 20.985,10.492 z" /><path
       inkscape:connector-curvature="0"
       id="path186"
       style="fill-opacity:1;fill-rule:nonzero;stroke:none"
       d="m -156.34867,50.600024 h 54.49 v -1.807 c 0,-23.803 -20.871,-42.4170003 -44.224,-42.4170003 -23.915,0 -44.9,18.3870003 -44.9,43.4330003 0,24.595 20.87,43.434 44.448,43.434 20.986,0 36.215,-14.214 40.502,-26.172 h -18.501 c -3.612,5.527 -11.282,11.732 -22.339,11.732 -18.839,0 -28.654,-16.02 -28.654,-29.106 0,-12.749 9.589,-28.881 29.444,-28.881 10.267,0 19.855,5.64 24.707,15.344 h -34.973 z" /><path
       inkscape:connector-curvature="0"
       id="path234"
       style="fill-opacity:1;fill-rule:nonzero;stroke:none"
       d="m -211.32087,51.712324 c 0,-16.077 -13.033,-29.11 -29.111,-29.11 -16.078,0 -29.111,13.033 -29.111,29.11 0,16.078 13.033,29.112 29.111,29.112 16.078,0 29.111,-13.034 29.111,-29.112 m 18.665,8.155 -1.199,5.247 c -0.248,1.075 -1.277,1.778 -2.364,1.619 l -10.304,-1.503 c -0.635,1.582 -1.371,3.109 -2.212,4.576 l 7.602,7.122 c 0.805,0.756 0.894,1.995 0.211,2.858 l -3.358,4.207 c -0.689,0.862 -1.919,1.05 -2.832,0.436 l -8.644,-5.834 c -1.245,1.145 -2.572,2.203 -3.968,3.164 l 3.764,9.722 c 0.398,1.024 -0.062,2.185 -1.056,2.665 l -4.847,2.336 c -0.995,0.476 -2.186,0.113 -2.742,-0.838 l -5.25,-8.998 c -1.606,0.486 -3.261,0.865 -4.953,1.13 l -0.828,10.381 c -0.089,1.101 -1.005,1.947996 -2.103,1.947996 h -5.386 c -1.102,0 -2.014,-0.846996 -2.105,-1.947996 l -0.825,-10.381 c -1.7,-0.265 -3.359,-0.646 -4.974,-1.134 l -5.254,8.993 c -0.557,0.949 -1.748,1.316 -2.741,0.836 l -4.847,-2.336 c -0.995,-0.48 -1.452,-1.641 -1.052,-2.665 l 3.762,-9.721 c -1.392,-0.965 -2.719,-2.024 -3.963,-3.17 l -8.643,5.829 c -0.914,0.617 -2.147,0.428 -2.831,-0.432 l -3.36,-4.209 c -0.683,-0.864 -0.594,-2.108 0.21,-2.858 l 7.611,-7.123 c -0.843,-1.461 -1.58,-2.994 -2.21,-4.576 l -10.306,1.502 c -1.092,0.158 -2.121,-0.546 -2.364,-1.623 l -1.196,-5.245 c -0.242,-1.077 0.376,-2.158 1.428,-2.487 l 9.949,-3.116 c -0.057,-0.835 -0.088,-1.676 -0.088,-2.529 0,-0.858 0.031,-1.705 0.088,-2.549 l -9.945,-3.117 c -1.053,-0.334 -1.672,-1.412 -1.427,-2.487 l 1.199,-5.25 c 0.243,-1.073 1.275,-1.778 2.364,-1.618 l 10.304,1.505 c 0.631,-1.582 1.37,-3.111 2.209,-4.576 l -7.599,-7.123 c -0.807,-0.755 -0.895,-1.996 -0.21,-2.859 l 3.357,-4.208 c 0.69,-0.858 1.919,-1.049 2.832,-0.434 l 8.642,5.835 c 1.247,-1.145 2.572,-2.203 3.966,-3.164 l -3.759,-9.723 c -0.399,-1.029 0.061,-2.1840003 1.051,-2.6670003 l 4.851,-2.336 c 0.994,-0.476 2.186,-0.11 2.742,0.84 l 5.25,8.9990003 c 1.605,-0.487 3.261,-0.867 4.954,-1.129 l 0.825,-10.3890003 c 0.091,-1.094 1.003,-1.941 2.105,-1.941 h 5.386 c 1.098,0 2.014,0.847 2.103,1.941 l 0.828,10.3890003 c 1.699,0.262 3.359,0.645 4.973,1.132 l 5.252,-8.9960003 c 0.558,-0.949 1.748,-1.313 2.742,-0.832 l 4.849,2.336 c 0.993,0.48 1.449,1.6400003 1.051,2.6650003 l -3.767,9.717 c 1.396,0.968 2.724,2.026 3.969,3.172 l 8.643,-5.83 c 0.911,-0.615 2.146,-0.429 2.832,0.433 l 3.352,4.209 c 0.689,0.864 0.597,2.111 -0.204,2.86 l -7.61,7.119 c 0.839,1.465 1.579,2.993 2.21,4.579 l 10.305,-1.5 c 1.087,-0.159 2.116,0.545 2.364,1.622 l 1.195,5.243 c 0.244,1.075 -0.379,2.159 -1.426,2.487 l -9.95,3.116 c 0.057,0.835 0.088,1.678 0.088,2.529 0,0.854 -0.031,1.707 -0.088,2.55 l 9.945,3.119 c 1.052,0.332 1.672,1.411 1.427,2.486" /><path
       style="fill-opacity:1;fill-rule:nonzero;stroke:none;stroke-width:1.33333325"
       d="M 173.1582 28.605469 C 153.31954 28.605469 137.23828 44.684764 137.23828 64.523438 C 137.23828 84.363437 153.31954 100.44336 173.1582 100.44336 C 192.99554 100.44336 209.07422 84.363437 209.07422 64.523438 C 209.07422 44.684764 192.99554 28.605469 173.1582 28.605469 z M 173.16992 35.947266 C 190.68592 35.947266 203.95813 50.987594 208.57812 63.183594 C 208.60619 63.25426 208.62463 63.325724 208.64062 63.400391 C 208.64869 63.428391 208.65802 63.454422 208.66602 63.482422 C 208.67535 63.535755 208.67888 63.591818 208.68555 63.646484 C 208.69088 63.693151 208.69727 63.742396 208.69727 63.789062 C 208.69727 63.809069 208.70319 63.824464 208.70312 63.841797 C 208.70313 63.872464 208.69603 63.897068 208.69336 63.927734 C 208.69069 63.997068 208.68254 64.067385 208.67188 64.136719 C 208.66647 64.183385 208.65777 64.227484 208.64844 64.271484 C 208.62844 64.350151 208.60486 64.424714 208.57812 64.498047 C 208.56746 64.522047 208.56207 64.547646 208.55273 64.570312 C 203.6794 77.118319 189.50192 91.734375 173.16992 91.734375 C 156.01926 91.734375 142.08591 75.978948 137.75391 64.488281 C 137.74457 64.461615 137.74176 64.432917 137.73242 64.40625 C 137.71642 64.356917 137.70012 64.308486 137.68945 64.257812 C 137.67879 64.212479 137.67206 64.169 137.66406 64.125 C 137.65606 64.077 137.64915 64.030422 137.64648 63.982422 C 137.64382 63.934422 137.6432 63.888464 137.64453 63.841797 C 137.6432 63.793797 137.64382 63.747219 137.64648 63.699219 C 137.64915 63.652552 137.65606 63.60526 137.66406 63.558594 C 137.67206 63.511927 137.67879 63.469161 137.68945 63.423828 C 137.70012 63.374495 137.71642 63.325964 137.73242 63.279297 C 137.74176 63.25263 137.74457 63.221359 137.75391 63.193359 C 141.75657 52.574693 154.57126 35.947266 173.16992 35.947266 z M 173.16992 43.388672 C 158.34459 43.388672 145.24207 59.016464 141.05273 63.841797 C 145.24073 68.665797 158.34326 84.292969 173.16992 84.292969 C 187.99925 84.292969 201.09849 68.668463 205.28516 63.841797 C 201.09716 59.016464 187.99659 43.388672 173.16992 43.388672 z M 171.89844 46.392578 L 174.46875 46.394531 L 174.89453 47.607422 L 175.24805 48.828125 L 177.42773 49.292969 L 178.24609 48.318359 L 179.12891 47.386719 L 181.47852 48.433594 L 181.37305 49.716797 L 181.19727 50.974609 L 183 52.285156 L 184.14453 51.730469 L 185.33008 51.238281 L 187.04883 53.148438 L 186.43359 54.277344 L 185.75781 55.355469 L 186.87305 57.287109 L 188.14453 57.244141 L 189.42969 57.277344 L 190.22266 59.722656 L 189.20117 60.501953 L 188.14648 61.214844 L 188.37695 63.429688 L 189.55469 63.910156 L 190.71875 64.462891 L 190.44727 67.017578 L 189.19531 67.314453 L 187.94531 67.537109 L 187.25586 69.65625 L 188.13672 70.570312 L 188.97266 71.548828 L 187.68555 73.773438 L 186.41992 73.535156 L 185.1875 73.230469 L 183.69727 74.886719 L 184.12695 76.080078 L 184.49609 77.310547 L 182.41602 78.824219 L 181.35742 78.091797 L 180.35352 77.310547 L 178.31641 78.214844 L 178.22656 79.482422 L 178.06055 80.755859 L 175.54492 81.292969 L 174.875 80.193359 L 174.27734 79.072266 L 172.04883 79.072266 L 171.45117 80.191406 L 170.78125 81.287109 L 168.26367 80.751953 L 168.09961 79.474609 L 168.01172 78.208984 L 165.97656 77.300781 L 164.97266 78.080078 L 163.91602 78.810547 L 161.83594 77.298828 L 162.20117 76.066406 L 162.63867 74.869141 L 161.14648 73.214844 L 159.91406 73.521484 L 158.64844 73.755859 L 157.36523 71.529297 L 158.20117 70.552734 L 159.08594 69.636719 L 158.39648 67.519531 L 157.14648 67.296875 L 155.89648 66.996094 L 155.62891 64.439453 L 156.78906 63.888672 L 157.9668 63.410156 L 158.20117 61.195312 L 157.14844 60.480469 L 156.12891 59.701172 L 156.92383 57.255859 L 158.20898 57.226562 L 159.48047 57.269531 L 160.5957 55.341797 L 159.92578 54.259766 L 159.31055 53.132812 L 161.0332 51.220703 L 162.21875 51.716797 L 163.36133 52.273438 L 165.16406 50.966797 L 164.99023 49.705078 L 164.88867 48.421875 L 167.23633 47.378906 L 168.12109 48.314453 L 168.9375 49.287109 L 171.11719 48.826172 L 171.4707 47.605469 L 171.89844 46.392578 z M 155.46875 52.980469 C 153.52208 56.143135 152.39648 59.86313 152.39648 63.841797 C 152.39648 67.81913 153.52075 71.539839 155.46875 74.701172 C 153.46342 73.163839 151.60903 71.527359 149.95703 69.943359 C 149.44236 67.994026 149.16797 65.948463 149.16797 63.841797 C 149.16797 61.73113 149.44236 59.687615 149.95703 57.738281 C 151.60903 56.154281 153.46342 54.516469 155.46875 52.980469 z M 190.88086 52.992188 C 192.88619 54.528187 194.73924 56.164047 196.39258 57.748047 C 196.90324 59.694713 197.17773 61.737797 197.17773 63.841797 C 197.17773 65.94713 196.90324 67.988167 196.39258 69.9375 C 194.73924 71.520167 192.88753 73.157359 190.88086 74.693359 C 192.82619 71.532026 193.94922 67.817797 193.94922 63.841797 C 193.94922 59.868464 192.82486 56.150854 190.88086 52.992188 z M 172.97852 53.425781 C 168.51512 53.507171 164.43235 56.45862 163.11719 60.970703 C 161.50119 66.52137 164.69276 72.335792 170.24609 73.953125 C 175.79809 75.569125 181.60985 72.380125 183.22852 66.828125 C 184.84452 61.273458 181.65161 55.461083 176.09961 53.84375 C 175.05836 53.54075 174.00853 53.406999 172.97852 53.425781 z M 173.17188 57.972656 C 176.41187 57.972656 179.04102 60.601797 179.04102 63.841797 C 179.04102 67.081797 176.41187 69.708984 173.17188 69.708984 C 169.93052 69.708984 167.30469 67.081797 167.30469 63.841797 C 167.30469 60.601797 169.93052 57.972656 173.17188 57.972656 z M 199.02148 60.367188 C 200.12415 61.520521 201.08734 62.590668 201.88867 63.5 C 201.89001 63.610667 201.89258 63.722606 201.89258 63.835938 C 201.89258 63.949271 201.89001 64.061208 201.88867 64.171875 C 201.08867 65.081208 200.12415 66.148066 199.02148 67.302734 C 199.17215 66.1694 199.25 65.010605 199.25 63.835938 C 199.25 62.659939 199.17215 61.503189 199.02148 60.367188 z M 147.32812 60.373047 C 147.17746 61.509047 147.09961 62.665797 147.09961 63.841797 C 147.09961 65.016464 147.17746 66.17526 147.32812 67.308594 C 146.22546 66.153927 145.26094 65.087068 144.46094 64.177734 C 144.4596 64.067068 144.45703 63.95513 144.45703 63.841797 C 144.45703 63.728464 144.4596 63.616526 144.46094 63.505859 C 145.26227 62.596526 146.22546 61.52638 147.32812 60.373047 z "
       transform="matrix(0.75000002,0,0,-0.75000002,-370.30037,100.10532)"
       id="path238" /></g></svg>